{"title":"The.Diabolical.2015.WEBRiP.XViD.AC3.5.1.ReLeNTLesS","uid":12582812,"size":1249028297,"categoryP":"video","categoryS":"movies","magnet":"?xt=urn:btih:f7ce639e2a96da89b0fe7d5c31a61e26e885a411&amp;dn=The.Diabolical.2015.WEBRiP.XViD.AC3.5.1.ReLeNTLesS&amp;tr=udp%3A%2F%2Ftracker.leechers-paradise.org%3A6969&amp;tr=udp%3A%2F%2Fzer0day.ch%3A1337&amp;tr=udp%3A%2F%2Fopen.demonii.com%3A1337&amp;tr=udp%3A%2F%2Ftracker.coppersurfer.tk%3A6969&amp;tr=udp%3A%2F%2Fexodus.desync.com%3A6969","seeders":0,"leechers":0,"uploader":"TvTeam","files":4,"time":1444972473,"description":"------------------------------------------------------------------------\r\n\r  https://www.torrenting.com\r\n\r\nSign up is OPEN - for time being. Come and have fun.\r\n\r\n------------------------------------------------------------------------P0STER\r\n[img]http://i.imgur.com/nn5jW3G.png[/img]\r\n\r\niMDB: http://www.imdb.com/title/tt3603808/\r\n\r\nGeneral\r\nComplete name               : The.Diabolical.2015.WEBRiP.XViD.AC3.5.1.ReLeNTLesS.avi\r\nFormat                      : AVI\r\nFormat/Info                 : Audio Video Interleave\r\nFile size                   : 1.15 GiB\r\nDuration                    : 1h 26mn\r\nOverall bit rate            : 1 911 Kbps\r\n\r\nVideo\r\nID                          : 0\r\nFormat                      : MPEG-4 Visual\r\nFormat profile              : Advanced   \r\nFormat settings, BVOP       : 1\r\nFormat settings, QPel       : No\r\nFormat settings, GMC        : No warppoints\r\nFormat settings, Matrix     : Default (H.263)\r\nMuxing mode                 : Packed bitstream\r\nCodec ID                    : XVID\r\nCodec ID/Hint               : XviD\r\nDuration                    : 1h 26mn\r\nBit rate                    : 1 711 Kbps\r\nWidth                       : 720 pixels\r\nHeight                      : 304 pixels\r\nDisplay aspect ratio        : 2.35:1\r\nFrame rate                  : 23.976 fps\r\nColor space                 : YUV\r\nChroma subsampling          : 4:2:0\r\nBit depth                   : 8 bits\r\nScan type                   : Progressive\r\nCompression mode            : Lossy\r\nBits/(Pixel*Frame)          : 0.326\r\nStream size                 : 1.03 GiB (90%)\r\nWriting library             : XviD 1.2.1 (UTC 2008-12-04)\r\n\r\nAudio\r\nID                          : 1\r\nFormat                      : AC-3\r\nFormat/Info                 : Audio Coding 3\r\nMode extension              : CM (complete main)\r\nFormat settings, Endianness : Big\r\nCodec ID                    : 2000\r\nDuration                    : 1h 26mn\r\nBit rate mode               : Constant\r\nBit rate                    : 192 Kbps\r\nChannel(s)                  : 6 channels\r\nChannel positions           : Front: L C R, Side: L R, LFE\r\nSampling rate               : 48.0 KHz\r\nCompression mode            : Lossy\r\nStream size                 : 118 MiB (10%)\r\nAlignment                   : Aligned on interleaves\r\nInterleave, duration        : 64 ms (1.53 video frames)\r\nInterleave, preload duratio : 192 ms\r\nTitle                       : The.Diabolical.2015.ReLeNTLesS.audio.5.1.English_new\r\nSample Included             : Yes\r\nSource                      : PLAYNOW Thanks\r\n\r\nPL0T\r\nMadison, a single mother, and her children, are awoken nightly by an increasingly strange and intense presence. She seeks help from her scientist boyfriend Nikolai, who begins a hunt to destroy the violent spirit that paranormal experts are too frightened to take on.\r\n\r\nCAST\r\nDirector: Alistair Legrand\r\nWriters: Luke Harvis, Alistair Legrand\r\nStars: Ali Larter, Max Rose, Chloe Perrin\r\n\r\nN0TE\r\nResized, Degrained and sharpened a touch.\r\n\r\nSCREENS\r\n[img]http://i.imgur.com/um91M8C.png[/img]\r\n[img]http://i.imgur.com/5x3jvBP.png[/img]\r\n[img]http://i.imgur.com/hn5oSiA.png[/img]\r\n[img]http://i.imgur.com/LGlSq8C.png[/img]\r\n[img]http://i.imgur.com/QfolWRS.png[/img]\r\n[img]http://i.imgur.com/pqBGfsC.png[/img]\r\n[img]http://i.imgur.com/Vn4ynWn.png[/img]\r\n[img]http://i.imgur.com/IrK35K5.png[/img]\r\n\r\nTRAiLER\r\n\r\nGREETZ\r\n\r\n\r\nHIVE-CM8, Blackjesus, M0RPH, M00SE, MiLLENiUM,\r\n\r\nMANiX, TiTAN, Anonymous, TuX, \r\n\r\nACAB, KingStoner, FooKas, 4PlayHD, \r\n\r\nSoZE, GodFather, Cld.... \r\n\r\nKeep up the good work guyz","torrent":{"xt":"urn:btih:f7ce639e2a96da89b0fe7d5c31a61e26e885a411","amp;dn":"The.Diabolical.2015.WEBRiP.XViD.AC3.5.1.ReLeNTLesS","amp;tr":["udp%3A%2F%2Ftracker.leechers-paradise.org%3A6969","udp%3A%2F%2Fzer0day.ch%3A1337","udp%3A%2F%2Fopen.demonii.com%3A1337","udp%3A%2F%2Ftracker.coppersurfer.tk%3A6969","udp%3A%2F%2Fexodus.desync.com%3A6969"],"infoHash":"f7ce639e2a96da89b0fe7d5c31a61e26e885a411","infoHashBuffer":{"type":"Buffer","data":[247,206,99,158,42,150,218,137,176,254,125,92,49,166,30,38,232,133,164,17]},"announce":[],"urlList":[]}}